<svg xmlns="http://www.w3.org/2000/svg" viewBox="0 0 12 16"><title>icon-map</title><path d="M6.002,0a5,5,0,0,0-5,5c0,5,5,9,5,9s5-4,5-9A5.0009,5.0009,0,0,0,6.002,0Zm0,8.0625A3.0625,3.0625,0,1,1,9.0645,5,3.0627,3.0627,0,0,1,6.002,8.0625ZM4.0645,5A1.938,1.938,0,1,0,6.003,3.0625,1.9374,1.9374,0,0,0,4.0645,5Zm6.2227,5.9c-.2227.3476-.4512.6777-.6827.9873q.0557.0264.1084.0527c.76.38,1.1006.8057,1.1006,1.0586s-.34.6787-1.1006,1.0586a8.6319,8.6319,0,0,1-3.7119.7529,8.647,8.647,0,0,1-3.7119-.7529c-.7607-.38-1.1016-.8056-1.1016-1.0586s.34-.6787,1.1016-1.0586c.0352-.0185.0713-.0351.1074-.0527-.23-.31-.4609-.64-.6816-.9873C.6534,11.4414,0,12.1816,0,13c0,1.6572,2.6856,3,6,3s6-1.3428,6-3c0-.8174-.6542-1.5576-1.7148-2.1Z" fill="#b92d2d"/></svg>