<svg xmlns="http://www.w3.org/2000/svg" viewBox="0 0 179.1 53.4"><path d="M0,33.1.5,27l.6-11.9.3-8.4V.6c2.1,0,3.8.1,5,.1s2.9,0,5-.1S15.3.5,16.8.5a18.44,18.44,0,0,1,4.7.4,10.1681,10.1681,0,0,1,2.8,1.3,9.468,9.468,0,0,1,2,2,11.0654,11.0654,0,0,1,1.2,2.7,10.3226,10.3226,0,0,1,.4,3,11.3956,11.3956,0,0,1-1.5,5.8A8.8177,8.8177,0,0,1,22,19.6a14.5063,14.5063,0,0,1-6.3,1.3,17.8322,17.8322,0,0,1-3-.3c-.1-.7-.4-1.8-.7-3.3a19.0228,19.0228,0,0,0-.9-3.2,14.9789,14.9789,0,0,0,2.2.2,4.8894,4.8894,0,0,0,3.6-1.2,3.784,3.784,0,0,0,1.2-2.8,3.194,3.194,0,0,0-.3-1.4,2.7228,2.7228,0,0,0-.8-1,2.9468,2.9468,0,0,0-1.3-.5,8.083,8.083,0,0,0-1.6-.1H12.3l-2,.1c-.2,3.1-.4,6.5-.5,10.2,0,6.9-.1,11-.1,12.4v3.1L5,33C4.3,33,2.6,33.1,0,33.1Z" fill="#f5f5f5"/><path d="M30.7,33.1l.4-5.1L32,10.2,32.3.6h9.8l-.5,7.3-.9,18-.2,7.2H30.7Z" fill="#f5f5f5"/><path d="M48,15.7c.3-1.6.5-2.7.6-3.2.1-.6.2-1.5.4-2.8A56.6588,56.6588,0,0,1,60.8,8.2a19.8292,19.8292,0,0,1,5.1.6,6.9572,6.9572,0,0,1,3.6,2,5.5153,5.5153,0,0,1,1.3,4c0,.9-.1,2.9-.4,6-.2,3.1-.4,7.2-.5,12.2H60.5c.2-1.7.5-5.3.7-10.8a11.4332,11.4332,0,0,1-1.4.6l-1.8.6a18.5066,18.5066,0,0,1-2,.6,5.3877,5.3877,0,0,0-1.3.7,3.0175,3.0175,0,0,0-.8.8,1.6446,1.6446,0,0,0-.2,1,1.9743,1.9743,0,0,0,.6,1.4,2.8137,2.8137,0,0,0,2,.6,4.4845,4.4845,0,0,0,1.1-.1c.4-.1.9-.2,1.6-.4a42.1365,42.1365,0,0,0-1.6,5.4,27.6943,27.6943,0,0,1-3.9.3,13.5535,13.5535,0,0,1-4.9-.8,5.6371,5.6371,0,0,1-3-2.7,7.229,7.229,0,0,1-1.1-3.7,5.7,5.7,0,0,1,.4-2.2,11.2516,11.2516,0,0,1,1.2-2.1A7.5092,7.5092,0,0,1,48,20.5a15.4377,15.4377,0,0,1,3.1-1.4c1.3-.4,2.9-.8,4.9-1.2.8-.2,1.6-.3,2.3-.5a6.4,6.4,0,0,0,1.5-.5,1.7937,1.7937,0,0,0,.7-.5,2.092,2.092,0,0,0,.4-.6,1.2683,1.2683,0,0,0,.1-.6,1.5959,1.5959,0,0,0-.8-1.4,4.4726,4.4726,0,0,0-2.2-.5A33.7572,33.7572,0,0,0,48,15.7Z" fill="#f5f5f5"/><path d="M75.1,32.6c-.1-.7-.1-1.4-.2-2.2s-.2-1.8-.3-3.2l-.2-1.7a22.8274,22.8274,0,0,0,4,1.3,11.4785,11.4785,0,0,0,3.1.4,9.2042,9.2042,0,0,0,1.9-.2,1.9753,1.9753,0,0,0,1.1-.6,1.33,1.33,0,0,0,.3-.8,1.4453,1.4453,0,0,0-.2-.7,5.822,5.822,0,0,0-1.1-1c-1.3-1-2.4-1.8-3.4-2.6a15.1784,15.1784,0,0,1-2.2-2.1,5.64,5.64,0,0,1-1.1-2,5.3815,5.3815,0,0,1-.4-2.2,7.229,7.229,0,0,1,1.1-3.7,6.9517,6.9517,0,0,1,3.3-2.5A17.0752,17.0752,0,0,1,86.2,8a50.21,50.21,0,0,1,8.4.9l.4,6.7a14.1805,14.1805,0,0,0-5.5-1.1,5.83,5.83,0,0,0-2.7.4,1.2438,1.2438,0,0,0-.8,1.2.9015.9015,0,0,0,.1.5c.1.2.2.3.3.5a2.6513,2.6513,0,0,0,.6.5c.2.2.8.6,1.8,1.3s1.7,1.2,2.2,1.6a9.2543,9.2543,0,0,1,2,1.9,7.24,7.24,0,0,1,1.1,1.9,7.7891,7.7891,0,0,1,.4,2.1,6.4954,6.4954,0,0,1-.8,3.1,7.2282,7.2282,0,0,1-2.5,2.4,11.0769,11.0769,0,0,1-3.6,1.3,25.8122,25.8122,0,0,1-4,.4c-.9,0-2.1-.1-3.5-.2A32.3034,32.3034,0,0,1,75.1,32.6Z" fill="#f5f5f5"/><path d="M116.5,26.1c-.3,1.3-.5,2.6-.7,3.9l-.5,2.9c-1.6.3-2.8.6-3.7.7a22.6021,22.6021,0,0,1-2.6.1,20.1581,20.1581,0,0,1-3.6-.3,4.9532,4.9532,0,0,1-2.6-1.3,4.124,4.124,0,0,1-1.4-2.1,6.9046,6.9046,0,0,1-.4-2.5v-.8c0-.4.1-1.3.2-2.7l.5-8.2H98c.1-1.1.2-2.5.2-4.3l.1-2.2h3.9c.1-.7.2-2.3.4-4.8l4.1-.8c.7-.1,2.3-.5,4.8-1.1-.1,2.1-.2,4.3-.2,6.7h5.4c-.1,3.3-.2,5.5-.2,6.5H111l-.3,5.9v1.7a9.2042,9.2042,0,0,0,.2,1.9,2.012,2.012,0,0,0,.9,1.1,3.194,3.194,0,0,0,1.4.3,4.8686,4.8686,0,0,0,1.2-.1C114.7,26.5,115.5,26.4,116.5,26.1Z" fill="#f5f5f5"/><path d="M119.4,33.1c.2-1.9.4-3.5.5-4.8s.2-2.9.3-4.8c.1-2,.2-4.1.3-6.5s.1-5.1.2-8.2h9.9c-.3,3-.5,5.6-.6,7.9s-.2,4.7-.2,7.2c-.1,4.5-.1,7.6-.1,9.2h-4.9C123.4,33,121.6,33.1,119.4,33.1Zm1.5-27.3c.1-1.9.1-3.4.1-4.5V0h9.5c0,.5-.1.9-.1,1.2l-.1,2.9V5.7h-4.5C124.3,5.7,122.6,5.7,120.9,5.8Z" fill="#f5f5f5"/><path d="M155,25.5c-.1.6-.3,1.8-.6,3.5l-.6,3.8a31.0183,31.0183,0,0,1-7.3.9,19.9527,19.9527,0,0,1-4.5-.5,9.6536,9.6536,0,0,1-4.1-2.2,8.9145,8.9145,0,0,1-2.7-3.8,15.3611,15.3611,0,0,1-1-5.8,15.5526,15.5526,0,0,1,1-5.7,11.6673,11.6673,0,0,1,2.9-4.5,9.7236,9.7236,0,0,1,4.3-2.4,21.4641,21.4641,0,0,1,5.3-.6c1.1,0,2.3.1,3.4.2a30.0524,30.0524,0,0,1,4.2.8v.5c0,.6.1,1.2.1,1.7,0,.6.1,1.5.2,2.8l.1,2.1a18.6873,18.6873,0,0,0-6-1.2,6.7114,6.7114,0,0,0-3.3.7,5.3033,5.3033,0,0,0-2.1,2.1,6.5651,6.5651,0,0,0-.7,3.2,7.4547,7.4547,0,0,0,.6,3.1,4.9532,4.9532,0,0,0,1.9,1.9,7.1732,7.1732,0,0,0,2.9.6,15.4065,15.4065,0,0,0,1.9-.2,9.022,9.022,0,0,0,1.9-.4A10.408,10.408,0,0,0,155,25.5Z" fill="#f5f5f5"/><path d="M159.2,32.6c-.1-.7-.1-1.4-.2-2.2s-.2-1.8-.3-3.2l-.2-1.7a22.8274,22.8274,0,0,0,4,1.3,11.4785,11.4785,0,0,0,3.1.4,9.2042,9.2042,0,0,0,1.9-.2,1.9753,1.9753,0,0,0,1.1-.6,1.33,1.33,0,0,0,.3-.8,1.4453,1.4453,0,0,0-.2-.7,5.822,5.822,0,0,0-1.1-1c-1.3-1-2.4-1.8-3.4-2.6a15.1784,15.1784,0,0,1-2.2-2.1,5.64,5.64,0,0,1-1.1-2,5.3815,5.3815,0,0,1-.4-2.2,7.229,7.229,0,0,1,1.1-3.7,6.9517,6.9517,0,0,1,3.3-2.5,17.0752,17.0752,0,0,1,5.4-.8,50.21,50.21,0,0,1,8.4.9l.4,6.7a14.1805,14.1805,0,0,0-5.5-1.1,5.83,5.83,0,0,0-2.7.4,1.2438,1.2438,0,0,0-.8,1.2.9015.9015,0,0,0,.1.5c.1.2.2.3.3.5a2.6513,2.6513,0,0,0,.6.5c.2.2.8.6,1.8,1.3s1.7,1.2,2.2,1.6a9.2543,9.2543,0,0,1,2,1.9,7.24,7.24,0,0,1,1.1,1.9,7.7891,7.7891,0,0,1,.4,2.1,6.4954,6.4954,0,0,1-.8,3.1,7.2282,7.2282,0,0,1-2.5,2.4,11.0769,11.0769,0,0,1-3.6,1.3,25.8122,25.8122,0,0,1-4,.4c-.9,0-2.1-.1-3.5-.2A32.3034,32.3034,0,0,1,159.2,32.6Z" fill="#f5f5f5"/><path d="M.1,46.7V39H4.9v7.7c0,1.7.9,2.5,2.2,2.5s2.2-.7,2.2-2.4V39H14v7.7c0,4.8-2.8,6.7-7,6.7S.1,51.4.1,46.7Z" fill="#f5f5f5"/><path d="M23.5,39h4.4l5,6.2V39h4.7V53H33.4l-5.2-6.5V53H23.5Z" fill="#f5f5f5"/><path d="M47.3,39H52V49h6.6v4H47.3Z" fill="#f5f5f5"/><path d="M67.7,39h4.7V53H67.7Z" fill="#f5f5f5"/><path d="M82.1,39H87l3,4.9L93,39h5V53H93.3V46l-3.2,5H90l-3.2-5v7H82.2V39Z" fill="#f5f5f5"/><path d="M107.6,39h4.7V53h-4.7Z" fill="#f5f5f5"/><path d="M125.6,42.9h-4.1v-4h13v4h-4.1V53h-4.7V42.9Z" fill="#f5f5f5"/><path d="M143.6,39h12v3.9h-7.4v1.4h6.9v3.4h-6.9v1.5h7.5V53H143.6Z" fill="#f5f5f5"/><path d="M165,39h5.4c5.6,0,8.4,2.8,8.4,6.9h0c0,4.2-2.9,7.1-8.5,7.1H165Zm4.7,4.1V49h.8c2.2,0,3.5-.9,3.5-2.9h0c0-2-1.4-2.9-3.5-2.9h-.8Z" fill="#f5f5f5"/></svg>